<?xml version="1.0" standalone="no"?><!DOCTYPE svg PUBLIC "-//W3C//DTD SVG 1.1//EN" "http://www.w3.org/Graphics/SVG/1.1/DTD/svg11.dtd"><svg t="1652778215734" class="icon" viewBox="0 0 1024 1024" version="1.1" xmlns="http://www.w3.org/2000/svg" p-id="1767" xmlns:xlink="http://www.w3.org/1999/xlink" width="200" height="200"><defs><style type="text/css"></style></defs><path d="M516.352 509.696m-405.9648 0a405.9648 405.9648 0 1 0 811.9296 0 405.9648 405.9648 0 1 0-811.9296 0Z" fill="#94E0DE" p-id="1768"></path><path d="M476.5696 468.4288m-336.4352 0a336.4352 336.4352 0 1 0 672.8704 0 336.4352 336.4352 0 1 0-672.8704 0Z" fill="#D5F0F1" p-id="1769"></path><path d="M441.9072 416.768m-213.5552 0a213.5552 213.5552 0 1 0 427.1104 0 213.5552 213.5552 0 1 0-427.1104 0Z" fill="#E9FFFF" p-id="1770"></path><path d="M516.352 509.696m-166.2464 0a166.2464 166.2464 0 1 0 332.4928 0 166.2464 166.2464 0 1 0-332.4928 0Z" fill="#FFCE76" p-id="1771"></path><path d="M498.0224 485.376m-112.896 0a112.896 112.896 0 1 0 225.792 0 112.896 112.896 0 1 0-225.792 0Z" fill="#FFEBCA" p-id="1772"></path><path d="M477.696 445.2352m-31.2832 0a31.2832 31.2832 0 1 0 62.5664 0 31.2832 31.2832 0 1 0-62.5664 0Z" fill="#FFFAF3" p-id="1773"></path><path d="M516.352 78.1312c-237.9776 0-431.5648 193.5872-431.5648 431.5648 0 237.9776 193.5872 431.5648 431.5648 431.5648 137.216 0 263.168-63.0272 345.5488-172.9536 8.4992-11.3152 6.1952-27.3408-5.12-35.84s-27.3408-6.1952-35.84 5.12c-72.6528 96.9216-183.6544 152.4736-304.5888 152.4736-209.7152 0-380.3648-170.6496-380.3648-380.3648 0-209.7152 170.6496-380.3648 380.3648-380.3648 209.6128 0 380.2112 170.4448 380.3648 380.0576l-0.4096 15.616c-6.656 61.4912-36.608 86.6304-103.2192 86.6304-67.6864 0-81.5616-56.2688-81.5616-71.3728V358.1952c0-14.1312-11.4688-25.6-25.6-25.6s-25.6 11.4688-25.6 25.6v25.0368c-35.1744-39.9872-86.6816-65.3312-144.0256-65.3312-105.7792 0-191.8464 86.0672-191.8464 191.8464s86.0672 191.8464 191.8464 191.8464c70.3488 0 131.9424-38.0928 165.3248-94.72 20.8384 30.976 57.344 56.0128 111.4112 56.0128 93.1328 0 145.0496-44.9024 154.2144-133.4784l0.1536-1.9968 0.4096-16.9472v-0.6144c0.0512-238.08-193.536-431.7184-431.4624-431.7184z m0 572.2112c-77.568 0-140.6464-63.0784-140.6464-140.6464 0-77.568 63.0784-140.6464 140.6464-140.6464s140.6464 63.0784 140.6464 140.6464c-0.0512 77.568-63.1296 140.6464-140.6464 140.6464z" fill="#434A54" p-id="1774"></path></svg>