<?xml version="1.0" standalone="no"?><!DOCTYPE svg PUBLIC "-//W3C//DTD SVG 1.1//EN" "http://www.w3.org/Graphics/SVG/1.1/DTD/svg11.dtd"><svg t="1652778288893" class="icon" viewBox="0 0 1024 1024" version="1.1" xmlns="http://www.w3.org/2000/svg" p-id="3088" xmlns:xlink="http://www.w3.org/1999/xlink" width="200" height="200"><defs><style type="text/css"></style></defs><path d="M517.12 516.7104m-399.5648 0a399.5648 399.5648 0 1 0 799.1296 0 399.5648 399.5648 0 1 0-799.1296 0Z" fill="#B2B2EA" p-id="3089"></path><path d="M481.7408 481.3312m-341.504 0a341.504 341.504 0 1 0 683.008 0 341.504 341.504 0 1 0-683.008 0Z" fill="#C9C9F4" p-id="3090"></path><path d="M428.4928 378.3168m-219.2896 0a219.2896 219.2896 0 1 0 438.5792 0 219.2896 219.2896 0 1 0-438.5792 0Z" fill="#E6E6FF" p-id="3091"></path><path d="M209.8688 262.3488C152.576 331.52 118.1184 420.3008 118.1184 517.12s34.4576 185.6 91.7504 254.7712C300.3392 722.944 361.7792 627.2 361.7792 517.12c0-110.08-61.44-205.7728-151.9104-254.7712z" fill="#FFD16C" p-id="3092"></path><path d="M193.024 257.024C146.2272 327.6288 118.1184 418.2528 118.1184 517.12c0 97.536 27.4432 187.0336 73.1136 257.2288 13.6704-11.7248 28.2112-26.0096 43.6224-43.264-93.2352-220.416 9.9328-381.696 26.2144-405.0432-18.9952-27.904-42.0352-51.4048-68.0448-69.0176z" fill="#FFE8C0" p-id="3093"></path><path d="M669.3376 517.12c0 111.2576 62.7712 207.7696 154.8288 256.256 58.0608-69.376 93.0304-158.72 93.0304-256.256s-34.9696-186.88-93.0304-256.256c-92.0576 48.4864-154.8288 144.9984-154.8288 256.256z" fill="#FFD16C" p-id="3094"></path><path d="M850.688 336.5888l0.0512-0.1536c-12.2368-27.0848-27.0336-52.4288-44.1856-75.5712-81.5616 48.4864-137.216 144.9984-137.216 256.256 0 107.1104 51.6096 200.5504 128.256 250.624l30.3616-33.4848s-94.8736-84.4288-94.8736-217.088 117.6064-180.5824 117.6064-180.5824z" fill="#FFE8C0" p-id="3095"></path><path d="M843.776 244.4288c-0.9728-1.1776-2.048-2.2528-3.1744-3.1744-78.0288-91.4944-194.048-149.6576-323.4304-149.6576-234.4448 0-425.1648 190.72-425.1648 425.1648 0 89.4976 27.8528 172.5952 75.3152 241.2032 1.1264 1.6384 2.304 3.2256 3.4304 4.8128 2.304 3.2768 4.608 6.5536 7.0656 9.728 3.9936 5.3248 8.0896 10.5984 12.3904 15.7184 0.4096 0.512 0.8704 0.9728 1.3312 1.4336 78.0288 92.9792 195.0208 152.2176 325.632 152.2176 128.3584 0 243.5072-57.2416 321.536-147.456 1.8432-1.28 3.584-2.816 5.12-4.608 63.8464-76.288 99.0208-173.1072 99.0208-272.6912s-35.2256-196.4032-99.072-272.6912z m46.336 246.6816H696.32a263.2192 263.2192 0 0 1 121.1904-196.864c41.4208 55.808 67.6352 123.4944 72.6016 196.864z m0 51.2a371.99872 371.99872 0 0 1-72.96 197.376c-68.8128-43.776-113.152-116.4288-120.8832-197.376h193.8432z m-106.1888-287.2832a314.13248 314.13248 0 0 0-139.1104 236.0832H542.72V143.7696c94.208 6.4 178.8928 47.7696 241.2032 111.2576zM491.52 143.7696v347.392H386.2528a314.91584 314.91584 0 0 0-137.1136-234.8032C311.552 192.1024 396.7488 150.1696 491.52 143.7696zM215.1936 736.9216a374.44096 374.44096 0 0 1-70.5536-194.6112H334.848a263.69536 263.69536 0 0 1-118.6304 196.0448c-0.3584-0.4608-0.7168-0.9216-1.024-1.4336zM144.6912 491.1104a374.5792 374.5792 0 0 1 71.4752-195.2256 263.56736 263.56736 0 0 1 118.5792 195.2256H144.6912z m104.9088 286.5152a314.8288 314.8288 0 0 0 136.704-235.3152H491.52v347.392c-94.5664-6.4512-179.5584-48.128-241.92-112.0768zM542.72 889.7024v-347.392h102.0416a314.04032 314.04032 0 0 0 138.7008 236.544c-62.2592 63.2832-146.7904 104.448-240.7424 110.848z" fill="#434A54" p-id="3096"></path></svg>